<?xml version="1.0" encoding="UTF-8" standalone="no"?>
<svg
   width="1080"
   height="290"
   viewBox="0 0 1080 290"
   fill="none"
   version="1.1"
   id="svg14"
   sodipodi:docname="nostr.cooking-withtext.svg"
   xml:space="preserve"
   inkscape:version="1.4 (e7c3feb100, 2024-10-09)"
   xmlns:inkscape="http://www.inkscape.org/namespaces/inkscape"
   xmlns:sodipodi="http://sodipodi.sourceforge.net/DTD/sodipodi-0.dtd"
   xmlns="http://www.w3.org/2000/svg"
   xmlns:svg="http://www.w3.org/2000/svg"><sodipodi:namedview
     id="namedview14"
     pagecolor="#ffffff"
     bordercolor="#000000"
     borderopacity="0.25"
     inkscape:showpageshadow="2"
     inkscape:pageopacity="0.0"
     inkscape:pagecheckerboard="0"
     inkscape:deskcolor="#d1d1d1"
     inkscape:zoom="0.62407407"
     inkscape:cx="407.80415"
     inkscape:cy="144.21365"
     inkscape:window-width="1920"
     inkscape:window-height="1011"
     inkscape:window-x="0"
     inkscape:window-y="0"
     inkscape:window-maximized="1"
     inkscape:current-layer="svg14" /><defs
     id="defs14"><linearGradient
       id="paint0_linear_4_19"
       x1="364.027"
       y1="205.243"
       x2="364.027"
       y2="37.7219"
       gradientUnits="userSpaceOnUse"><stop
         stop-color="#FF0C1C"
         id="stop13" /><stop
         offset="1"
         stop-color="#FFAA00"
         id="stop14" /></linearGradient><clipPath
       id="clip0_4_19"><rect
         width="1080"
         height="290"
         fill="white"
         id="rect14" /></clipPath></defs><path
     style="font-size:188.459px;line-height:0.75;font-family:'Char BB';-inkscape-font-specification:'Char BB, Normal';letter-spacing:0px;word-spacing:0px;fill:#ff0000;stroke-width:9.14374;paint-order:fill markers stroke"
     d="m 92.655176,50.949435 c -5.572591,3.392012 -8.480036,6.541737 -8.480036,9.691463 0,2.180578 1.695997,8.480027 1.695997,10.660602 0,1.453723 -0.242274,2.907433 -0.484561,4.361168 h 0.484561 c 4.118881,-2.665158 6.057177,-5.572596 6.057177,-9.206894 0,-1.938292 -1.211447,-6.784024 -1.211447,-8.722315 0,-2.422866 0.726873,-4.603445 2.42287,-6.784024 z M 142.80849,191.9602 c 0,-2.90744 -1.45372,-6.54173 -4.60346,-11.14519 -1.45372,-0.24227 -2.66514,-1.21142 -3.392,-3.14971 l -0.96915,0.24229 c -1.9383,-0.24229 -5.57259,-0.24229 -10.66061,0.48456 -5.57259,0.72686 -8.48002,1.69601 -8.48002,3.14972 -0.96915,0.24229 -2.66516,2.90745 -3.63431,2.90745 -0.24228,0 -0.48457,-0.24229 -0.96914,-0.96915 -1.21143,-1.69601 -3.87659,-2.66516 -7.99545,-2.66516 -2.422862,0 -4.603445,1.21145 -6.784017,3.39202 -2.180596,2.66516 -5.088028,4.36116 -8.480035,5.08802 0.242287,-0.72686 0.242287,-3.87658 0.242287,-9.69146 0,-4.11887 2.907433,-10.41832 2.907433,-12.5989 0,-0.72687 0,-1.45371 -0.242287,-2.66516 -0.726862,-3.87657 2.42287,-10.17603 2.42287,-13.08347 0,-2.18057 -1.453734,-7.51087 -1.453734,-9.69146 0,-1.21143 0.242287,-2.18057 0.96916,-2.90744 v -0.72686 c 1.45371,-1.93829 2.665146,-5.57259 3.634306,-10.6606 l 1.938285,-11.87205 c 0.242287,-1.696 1.695997,-4.60344 4.118872,-8.72231 1.93828,-3.63429 2.90744,-6.784026 2.90744,-9.449172 0,-4.118868 -1.9383,-14.5372 -1.9383,-18.656068 0,-7.510887 2.66516,-13.568045 7.75317,-18.17149 -10.660611,5.572591 -15.990914,10.90289 -15.990914,16.475481 0,4.603442 0,7.2686 -0.242287,8.237748 -0.484575,2.180571 -1.695998,4.845729 -3.876581,7.510887 -1.211436,1.45371 -2.180572,2.180571 -2.907433,2.422858 -0.726873,-0.484574 -1.696009,-0.726861 -2.422871,-0.726861 -1.211435,-1.695997 -1.695997,-4.603442 -1.695997,-8.964597 -0.726873,1.211423 -3.149732,3.392007 -7.026313,6.057152 -2.907445,2.180584 -4.361167,4.845742 -4.361167,8.237749 0,1.453723 0.242287,3.149733 0.726861,5.088033 l -0.726861,1.69599 c -0.726849,0.72686 -0.969136,1.45372 -0.969136,1.93829 0,0.72687 0.726849,1.45373 1.938284,2.66515 0,2.18059 -1.695997,7.51089 -1.695997,9.69146 0,1.21145 0.969136,4.11888 0.969136,5.33032 0,1.93828 -2.180571,6.78401 -2.180571,8.9646 0,2.18057 2.180571,7.99544 2.180571,10.17603 0,1.93828 -1.938284,5.57259 -1.938284,7.2686 0,1.696 0.726861,4.84573 0.726861,6.05716 0,1.21143 -2.907445,3.87658 -2.907445,7.99545 0,1.69601 1.211423,5.3303 1.211423,7.02631 0,1.9383 -1.45371,6.54174 -1.45371,8.48004 0,1.21142 0.484574,2.66514 1.211435,4.11885 v 5.08803 c -0.242287,2.18057 -0.242287,4.11887 -0.242287,5.33031 -0.726861,1.69599 -0.969148,4.60344 -0.969148,8.72231 0,10.9029 1.938284,16.47549 6.057165,16.47549 0.969148,0 2.42287,-0.24228 4.361155,-0.96915 l 4.603454,-1.21144 0.242287,-1.21143 c 2.180571,-1.69599 3.634282,-3.6343 3.876569,-5.57259 0.726873,-0.24228 1.211447,-0.48457 1.696009,-0.48457 2.180584,0 4.361168,-1.21144 6.057165,-3.39201 1.696009,-2.18058 4.603442,-3.87659 8.722307,-4.60344 4.11888,-0.96915 6.54175,-1.9383 6.78404,-2.66516 v 0.24229 l 0.48456,-0.72686 0.96915,-1.21142 2.18058,-2.1806 c 0.48458,-0.72685 3.14972,-1.45371 7.99547,-2.66513 4.84572,-1.21145 7.75316,-1.69603 8.96459,-1.69603 -0.24228,0.72687 0,0.96915 0.48458,0.96915 0.72686,0 1.45371,-0.24228 2.18057,-0.72686 l 1.93829,0.96915 0.48458,0.96915 1.21142,0.48457 c 3.14973,0 5.08802,-0.24228 5.81489,-0.96913 l -0.2423,-1.21145 c 0.2423,-0.48458 0.48459,-1.21142 0.48459,-1.93829 z M 229.78915,53.614587 c -3.87659,2.180579 -5.81487,4.603445 -5.81487,6.784023 0,1.696006 0.96914,5.572591 0.96914,7.510884 0,0.969146 0,1.938291 -0.24228,2.907432 h 0.24228 c 2.66516,-1.696001 4.11887,-3.876579 4.11887,-6.299444 0,-1.211433 -0.72686,-4.845732 -0.72686,-6.057163 0,-1.696006 0.48458,-3.392012 1.69601,-4.845732 z M 184.48157,42.953979 c -5.57259,3.149726 -8.23774,6.541738 -8.23774,9.691462 0,2.665152 1.45371,8.480029 1.45371,10.660608 0,1.453719 -0.24228,2.907439 -0.48457,4.361158 h 0.48457 c 4.11887,-2.665152 6.05718,-5.572591 6.05718,-9.206888 0,-1.938293 -1.21145,-6.784024 -1.21145,-8.722316 0,-2.422865 0.72686,-4.603445 2.42287,-6.784024 z m 55.24134,46.519015 c 0,-6.057152 -2.66516,-11.629755 -8.23775,-17.202345 1.21143,2.42287 1.93829,4.603442 1.93829,6.541751 0,4.603442 -4.36116,8.48001 -8.9646,8.48001 -2.18058,0 -3.63431,-2.422858 -4.84573,-7.0263 -1.9383,-8.480035 -3.14973,-13.568049 -3.63431,-15.021769 -2.42287,-6.057163 -6.29943,-10.660607 -11.38746,-13.568046 2.66515,3.876585 4.11886,8.480028 4.11886,13.568046 0,7.753169 -9.20688,13.810334 -16.96005,13.810334 -4.11887,0 -6.29944,-1.69601 -6.29944,-4.845742 0,-1.211423 0.24228,-2.422858 0.96915,-4.118861 -2.90745,0.726854 -6.05717,4.118861 -9.2069,10.176038 -3.14972,5.330303 -6.78403,7.995461 -11.38747,7.995461 -3.14972,0 -4.84573,-1.211448 -4.84573,-3.392019 0,-1.695997 0.72686,-3.634294 2.42287,-6.299452 -9.93375,6.057165 -15.02177,15.99091 -15.02177,29.80124 0,1.45373 0,3.39202 0.24229,5.81489 0.24228,2.90743 -1.93829,9.20688 -1.93829,11.87204 0,1.696 1.45371,5.57259 1.45371,6.78401 0,1.9383 -2.18057,7.02631 -2.18057,9.20689 0,2.66515 1.45372,9.44918 1.21144,12.35661 v 2.18059 c -0.96915,0.96914 -1.45373,2.66514 -1.45373,5.3303 0,1.21143 0.24229,1.69601 0.48458,1.45372 -2.66516,12.11433 -3.87658,18.65607 -3.87658,19.86749 0,1.69601 0.48457,5.33031 0.48457,7.02632 0,2.18058 -1.21143,7.75316 -1.21143,9.93374 0,2.18058 0.48457,3.87659 1.45371,4.60346 0,1.21142 -0.96914,4.60344 -0.96914,5.81486 0,0.96915 0.72686,2.66516 1.93828,5.3303 l 0.72687,0.48459 c 0.48458,5.81487 2.42287,8.72231 5.57259,8.72231 0.72686,0 3.6343,-0.72687 8.72232,-1.9383 -0.72686,-0.24228 1.93828,-3.39202 2.66514,-3.6343 1.21144,-1.45371 1.69601,-2.42286 1.45373,-3.14971 l 1.21143,-0.48459 c 2.18058,0 3.87658,-0.48457 4.84573,-1.21143 l 2.90743,-4.36116 c 0.24229,-0.48457 2.66515,-1.21142 7.26859,-2.18057 4.60347,-1.21143 7.99546,-3.392 10.66062,-6.78402 5.81488,-1.696 11.38747,-2.90745 16.96006,-4.11887 l 0.48457,0.96913 c 0.72686,-0.72684 1.45371,-0.96913 2.18059,-0.96913 0.48457,0.72685 1.21142,0.96913 1.93828,1.21142 l 0.24229,0.48459 0.72686,0.72686 1.69601,0.24229 c 2.18057,0.24227 3.87658,-0.24229 4.84573,-0.96915 l -0.24229,-0.72688 c 0,-0.24228 0,-0.48457 0.24229,-0.96913 v -1.21144 c 0,-2.66516 -1.9383,-9.20688 -3.87658,-10.17604 l -0.48458,-1.21143 c -1.69601,-0.72686 -2.90744,-1.93828 -3.39202,-3.14973 l -11.14518,0.48459 c -6.05716,0.48457 -8.9646,1.696 -8.9646,3.39201 -0.96914,0.24227 -2.66514,2.90743 -3.39201,2.90743 -0.24229,0 -0.72687,-0.24229 -1.21144,-0.96914 -1.21142,-1.69602 -3.87658,-2.66516 -7.99545,-2.66516 -2.66514,0 -5.08801,1.45371 -7.75316,4.36116 -2.66516,2.90744 -6.29945,4.36115 -11.14518,4.60344 1.21142,-6.78401 1.93828,-9.69146 1.93828,-8.48002 v -8.96461 c 0.24229,0 1.45373,-0.24229 3.6343,-0.72685 1.21144,-0.24229 2.18058,-0.96915 3.39202,-2.18057 -0.24229,0.24227 -0.48458,0.48456 -0.48458,0.48456 0.24229,0 0.96915,-0.24229 1.696,-0.48456 l 0.48457,-1.21145 c 1.69601,-0.96915 2.90745,-1.93828 3.63431,-2.90743 1.21143,-3.14972 2.66516,-4.84574 4.60344,-4.84574 3.6343,0 5.81488,-0.48458 6.78403,-1.45371 0.96915,-2.90745 1.69599,-4.84573 2.42286,-5.57259 2.42287,-1.21143 3.87658,-1.69601 4.60345,-1.69601 h -0.2423 c 3.14973,-0.24229 5.5726,-0.48458 7.2686,-0.48458 1.21144,-1.21142 1.9383,-1.93828 2.66516,-2.42286 1.93828,0.24229 6.54172,-3.39201 8.72231,-3.39201 1.21143,0 4.11888,1.69601 5.81488,1.69601 1.21143,0 2.42287,-0.48458 3.14973,-1.45373 0.72685,-0.24228 2.18057,-0.24228 4.36115,-0.48456 3.6343,0 5.08802,-2.42287 5.08802,-4.36117 0,-2.42287 -0.72686,-3.63429 -1.93828,-3.392 l -0.96917,-1.45373 v -1.21143 l -0.48457,-0.72686 c -1.21142,-0.72686 -2.18057,-1.21142 -2.66515,-1.93829 h -1.696 c -1.696,-0.48457 -2.42286,-0.72686 -2.42286,-0.72686 -2.18059,0 -5.33032,2.42286 -7.02632,2.42286 0,0 -1.45371,-0.24229 -4.11886,-0.96913 h -0.72687 c -4.60344,-0.96915 -7.51088,-1.45373 -8.72231,-1.45373 -0.72686,0 -1.696,0 -2.66515,0.24229 -2.66515,1.696 -5.57259,2.66515 -8.48004,2.66515 -1.45371,0 -2.42286,-0.24229 -2.66514,-0.96915 -1.21144,-0.24228 -2.18059,-0.24228 -2.90745,-0.24228 -2.66514,0 -4.84573,0.72685 -6.29944,2.42287 h -1.21143 c -0.24229,0.72685 -0.72686,1.45371 -1.45373,1.93829 -1.21142,0.24228 -2.42287,0.48457 -3.87658,0.48457 v -0.24229 c 0,-3.14973 1.696,-8.72232 5.08802,-16.96005 2.18058,0.24228 3.39201,0 4.11887,-0.96915 -0.24229,0.24228 0,0.24228 0.24228,0.24228 1.21144,0 1.9383,-0.48457 2.66516,-1.21143 1.696,-1.9383 3.39201,-3.14972 4.60344,-3.63429 3.14974,-1.45371 5.81487,-2.18059 7.75318,-2.42288 l 1.21142,-0.96914 3.39202,-2.42286 0.24229,-0.96915 5.33029,-0.96915 c 6.78404,0 7.75317,-2.18057 7.99546,-2.18057 0.24229,0 1.696,1.21144 3.39202,1.21144 2.66514,0 3.87658,0 3.39201,0 0.96914,0.24227 1.69601,0.96913 2.42285,2.18057 l 1.93831,1.45372 c -0.24228,1.21143 0.48456,1.93828 1.696,2.18057 l 0.24229,0.96915 c 1.69599,0.72686 2.90744,0.96915 3.392,0.96915 1.9383,0 3.39202,-0.24229 4.36117,-0.96915 h 1.21142 l 0.72687,-0.48458 -0.24229,0.24229 v -0.48457 l 0.24229,-0.72686 c 0,-1.21143 1.69601,-5.57258 1.69601,-7.51089 0,-0.48456 0,-0.96914 -0.24229,-1.696 l -0.48458,-0.48457 c 2.90744,-6.784028 4.36117,-12.356618 4.36117,-16.475486 z M 275.58147,49.98029 c -3.87657,2.180578 -5.81487,4.603444 -5.81487,6.784023 0,1.696006 0.96914,5.57259 0.96914,7.510882 0,0.969146 0,1.938293 -0.24228,2.907439 h 0.24228 c 2.66516,-1.696006 4.11887,-3.876585 4.11887,-6.299451 0,-1.211433 -0.72685,-4.84573 -0.72685,-6.057163 0,-1.696006 0.48456,-3.392012 1.696,-4.84573 z m 60.57165,42.642436 c 0,-7.510887 -2.18059,-13.083477 -6.54174,-16.717771 0.24229,1.211423 0.24229,2.180571 0.24229,3.14972 0,4.361167 -2.18059,6.541738 -6.78404,6.541738 -4.60344,0 -7.26859,-2.665158 -7.99544,-7.995461 -0.72687,-6.057165 -2.18058,-9.449172 -4.84574,-10.176032 0,6.057164 -3.14972,8.964609 -9.44917,8.964609 -6.54174,0 -11.87205,-4.361167 -11.87205,-10.176041 0,-5.088018 3.39201,-10.902895 10.41833,-17.202344 -7.51089,3.39201 -14.53719,10.418321 -21.5635,21.078928 -6.05716,9.449177 -10.66062,14.294906 -13.81033,14.294906 -3.14973,0 -4.60344,-1.69601 -4.60344,-5.088016 0,-2.907433 1.696,-6.057165 4.84573,-9.691462 -12.84119,8.9646 -17.92921,17.202336 -17.68692,31.98182 v 1.93829 l -0.72688,0.72686 c -2.66514,0.72687 -5.08801,0.96916 -7.51087,1.21145 -0.24229,0.72685 -1.21144,1.69599 -2.66516,2.66513 v 0.96916 c -1.45371,0.96915 -2.18057,2.18057 -2.18057,3.87657 l 0.96915,0.48459 1.45371,-0.24229 -0.24229,0.48457 c 2.90745,3.8766 5.08802,6.54173 6.78404,8.23775 l 1.93828,0.72685 c 4.36116,2.90743 7.75318,4.36117 10.41834,4.36117 2.66513,0 6.05715,-1.69603 7.26858,-2.42287 h 0.72685 c 5.08803,-0.72687 5.08803,-0.96915 7.02632,-1.21144 1.69601,-1.69601 2.90744,-2.66516 3.87659,-3.39201 v -0.24228 c 0,2.66515 -2.42287,8.96459 -2.42287,11.62975 0,1.93829 1.69601,6.05715 1.69601,7.75318 0,2.66514 -1.9383,8.72231 -1.9383,11.38745 0,1.69601 0.24229,2.90745 0.96915,3.6343 0.24229,2.90744 0.48457,4.84572 0.48457,5.57259 0,7.02631 -0.96914,12.84119 -3.14972,17.20234 -0.72686,1.45372 -1.21143,3.39202 -1.21143,5.5726 0,2.18057 1.21143,8.48003 1.21143,10.6606 0,2.18058 -1.93831,7.02631 -1.93831,8.96461 0,0.96913 0.2423,1.93829 0.48459,2.90743 l -1.69601,7.51089 1.21142,1.69601 c 0.2423,2.18058 2.42288,3.392 6.05718,3.392 6.54173,0 12.35662,-3.63429 12.35662,-10.17604 0,-0.24228 0,-0.72685 -0.24229,-0.96914 -0.96916,-2.18057 -1.45373,-3.87659 -1.69601,-4.60344 0.72685,-6.05716 1.69601,-9.93375 3.14972,-11.62975 0.72686,-0.72687 1.21144,-1.45373 1.45372,-1.9383 0,-0.72685 -0.48457,-2.42287 -0.48457,-3.39201 0,-1.69601 0.96914,-4.84573 2.66516,-8.96461 1.93828,-4.11887 2.90744,-7.2686 2.90744,-9.20688 0,-1.21142 -1.45373,-4.60344 -1.45373,-5.81487 0,-2.42287 0.48457,-8.23775 1.69601,-17.20234 1.21143,-8.96461 1.93829,-14.5372 2.66514,-16.23321 l 2.90745,-6.29945 c 1.21143,-2.66515 1.93828,-4.60345 1.93828,-6.29944 0,-0.72686 -0.24229,-1.45372 -0.48456,-1.69601 l 6.05716,-1.21144 c 0.72687,0.72686 1.696,1.21144 2.90744,0.96914 h 0.48457 c 0.96915,0 2.90743,-0.48456 3.87658,-0.48456 l 1.21145,0.72686 0.96914,1.45372 0.96914,0.48457 0.72685,-1.21143 v 0.48457 l 1.21145,1.45371 c 1.21142,-0.24228 1.21142,1.9383 4.84573,1.9383 l 1.93828,1.69601 0.96915,-1.69601 2.18059,-0.72686 h 1.45371 l 0.72686,-0.48458 c 0,-1.93828 1.93829,-6.78401 1.93829,-8.96459 0,-0.72686 -0.24228,-1.21144 -0.48457,-1.45372 2.18057,-3.6343 3.39202,-8.237741 3.39202,-13.568044 z m 124.0507,-52.576184 c -5.57259,3.149724 -8.23773,6.299449 -8.23773,9.449175 0,2.180578 1.696,8.237742 1.696,10.902893 0,1.211433 -0.24229,2.665152 -0.48457,4.118872 h 0.48457 c 4.11887,-2.665153 6.05715,-5.57259 6.05715,-9.206889 0,-1.938292 -1.21142,-6.784023 -1.21142,-8.722315 0,-2.422866 0.72686,-4.603445 2.42287,-6.541736 z m 15.99092,14.052618 c -10.90289,5.57259 -16.23321,11.629754 -16.23321,17.686915 0,5.57259 0,8.237748 0.24229,7.753174 -0.72686,3.149719 -4.84573,9.206884 -7.75316,9.206884 -2.18059,0 -3.39201,-3.14972 -3.39201,-9.691458 -0.72686,1.211435 -2.90745,3.149719 -6.78403,6.057164 -3.14972,2.180571 -4.60345,4.845729 -4.60345,7.510887 0,0.969136 0.48457,3.634294 0.48457,4.603442 -2.66514,5.572592 -4.11887,12.598902 -4.11887,21.078922 0,2.18058 1.21144,7.26859 1.21144,8.96461 0,1.93829 -2.18058,6.54173 -1.9383,8.72231 v 0.96915 c -0.48457,0.24228 -0.96913,0.48456 -1.21142,0.48456 -0.48457,0 -0.72686,-0.24228 -0.72686,-0.48456 l -1.45372,-0.72686 c -0.72686,0.48458 -1.69601,0.72686 -2.42286,0.96914 l -1.45374,-0.24228 c -0.24228,0 -0.72685,0 -0.96913,0.24228 -1.69601,-0.24228 -3.8766,1.21143 -4.84573,1.21143 -0.24229,0 -0.96915,-0.24228 -1.69601,-0.48457 -2.66516,1.21145 -4.36116,2.18058 -5.57259,3.39202 0.72686,-0.96915 1.45372,-1.69601 1.69601,-2.42286 2.18057,-12.84119 3.63429,-20.83665 4.36115,-23.50181 l 0.96915,-0.96914 h -0.24229 c 0.24229,-0.96914 0.48458,-1.93829 0.48458,-2.90744 0,-1.21142 -0.72686,-5.08802 -0.72686,-6.29944 4.36115,-10.176046 6.54172,-17.202346 6.54172,-21.321226 0,-2.180584 -0.24228,-4.118868 -0.72685,-6.299452 -2.18058,1.69601 -3.6343,2.665158 -4.84572,2.665158 -1.69601,0 -2.66515,-1.69601 -2.66515,-5.088016 0,-3.392019 0.96914,-7.99546 2.90742,-14.052624 1.93831,-6.057163 3.87659,-10.176035 6.05718,-12.356613 -4.36116,2.665151 -7.51089,5.330303 -9.69147,8.237742 -2.18057,4.361157 -4.60345,8.722315 -7.0263,12.841186 -3.63431,7.026306 -6.29947,10.418325 -7.51089,10.418325 -0.72686,0 -0.96915,-0.969148 -0.96915,-2.665158 0,-1.211423 0.24229,-3.149732 0.72686,-5.814877 -5.57259,6.057164 -8.23775,11.38748 -8.23775,15.990922 0,2.907432 0.96915,10.660594 0.96915,13.810323 v 1.93829 l -0.48457,0.24228 -2.90745,7.75318 c -0.24227,0.24229 -0.24227,0.24229 -0.24227,0.48457 0,0.72686 0.48457,1.69601 1.69601,3.39201 v 0.24229 c 0,1.93831 -1.69601,7.02631 -1.69601,8.96461 0,1.21142 0.96915,4.84573 0.96915,6.05716 0,1.93828 -1.9383,6.54173 -1.9383,8.48004 0,2.66514 1.9383,8.23772 1.9383,10.4183 0,1.9383 -1.45373,5.57259 -1.45373,7.2686 0,1.69601 0.48458,5.57259 0.48458,7.26859 v 0.48457 c -0.96915,0.96917 -1.69601,1.69601 -2.18059,1.9383 -0.24227,1.69601 -0.48456,3.39202 -0.48456,5.08802 0,1.69602 0.96914,5.57259 0.96914,6.78402 0,1.69601 -1.21142,5.81488 -1.21142,7.51088 0,1.93831 1.21142,6.78404 1.21142,8.96462 v 17.20234 c 0,0.72685 -0.24229,1.21143 -0.48458,1.93829 l 0.48458,4.36115 c 0.24229,0 0.96915,1.21143 2.42287,3.6343 0.96915,0.24229 1.45372,0.24229 1.45372,0.24229 1.696,0 4.11887,-2.90744 4.36116,-3.14972 0.72686,-0.24229 3.392,-0.48458 4.11886,-1.45373 0.72687,-1.21142 1.21144,-1.93829 1.45373,-2.66515 2.18058,-6.54173 3.14972,-9.93375 3.14972,-10.17602 0,-1.69603 -0.72685,-5.33031 -0.72685,-7.02633 0,-1.21142 0.24227,-2.18057 0.96913,-2.42286 0.48458,-0.96915 0.72687,-2.66514 0.72687,-5.3303 0,-7.75316 0.48457,-12.59891 1.696,-14.2949 0.96915,-2.18059 2.18058,-5.81488 4.11887,-5.81488 0.24229,0.24229 0,0.24229 -0.24227,0.24229 l 4.36115,-2.90745 c 2.18057,-3.63429 3.392,-5.3303 3.63428,-5.3303 h 0.24229 c 0.72687,-2.18058 2.42287,-3.14972 5.5726,-2.90745 0.48458,0.48458 1.21143,0.24229 2.42286,-0.96913 0.72686,-1.93829 1.45372,-2.90745 2.18059,-2.90745 h -0.24229 0.48457 l 2.90745,-2.18057 c -1.45374,7.75318 -2.18059,12.59891 -2.18059,14.53719 0,2.18058 -1.93829,7.2686 -1.93829,9.44917 0,1.9383 0.96915,6.29945 0.96915,8.23775 0,2.18058 -1.45373,7.2686 -1.45373,9.44917 0,2.18058 0.72686,3.87658 1.9383,4.60345 v 0.48458 c 0,1.696 -0.72686,5.08802 -0.72686,6.29944 0,1.69601 0.72686,3.14973 1.93828,4.36115 0.24229,0.72686 0.96915,1.21144 2.18059,1.21144 0.48457,0 0.96915,0 1.69601,-0.24229 l 0.24228,-0.48457 0.48457,-0.48458 c 0.72686,0.24229 1.45373,0.48458 2.18058,0.48458 2.66514,0 4.84573,-1.93829 6.54174,-5.81488 1.21143,-2.90743 1.93829,-5.81487 1.93829,-8.9646 0,-1.21142 -0.48457,-4.11887 -0.48457,-5.08801 0,-2.66516 2.18057,-8.72231 2.18057,-11.38747 0,-1.21144 -0.96913,-4.60344 -0.96913,-6.29944 0,-2.42287 0.96913,-5.08803 2.90743,-8.23775 0.48457,-0.72687 1.45372,-4.36115 2.66514,-10.41833 1.21144,-6.05715 1.93831,-9.93375 1.93831,-11.14517 0,-1.69601 -0.72687,-6.29946 -0.72687,-8.23775 0,-2.42287 1.45372,-6.78402 4.11887,-13.32575 2.66515,-6.54175 4.11886,-10.66062 4.11886,-12.11433 0,-0.96916 0,-1.69602 -0.24227,-1.9383 4.11887,-8.480031 6.29945,-14.294908 6.29945,-17.202341 0,-4.11888 -1.93829,-14.537187 -1.93829,-18.656067 0,-7.268594 2.66515,-13.325757 7.75317,-17.929202 z m 14.05269,-6.299449 c -5.57261,3.149724 -8.23775,6.541736 -8.23775,9.691461 0,2.665151 1.45371,8.480029 1.45371,10.660608 0,1.45372 -0.24228,2.907433 -0.48456,4.361156 h 0.48456 c 4.11888,-2.665151 6.05716,-5.572589 6.05716,-9.206887 0,-1.938293 -1.21143,-6.541736 -1.21143,-8.722315 0,-2.422866 0.96915,-4.603444 2.66516,-6.784023 z m 19.86748,6.299449 c -5.3303,2.665153 -8.9646,5.088018 -10.90289,6.784023 -3.39202,3.149726 -5.08801,7.026311 -5.08801,11.387466 0,4.845729 0,7.2686 0,7.2686 -0.72688,3.634306 -4.36116,9.206884 -7.51089,9.206884 -2.42287,0 -3.63429,-3.14972 -3.63429,-9.691458 -0.96915,1.938296 -3.39202,4.11888 -7.2686,6.541738 -2.42286,1.695997 -3.63431,4.845729 -3.63431,9.449171 0,2.180584 0.24229,4.84573 0.48459,7.995466 l 0.48457,0.72684 c -0.48457,0.72687 -0.72687,1.69603 -0.96916,2.66516 -0.72686,0.72686 -0.96914,1.21144 -0.96914,1.696 0,0.72686 0.72685,1.69602 1.9383,2.90744 0,2.18059 -1.69602,7.51089 -1.69602,9.69146 0,1.21145 1.21145,4.11888 1.21145,5.08802 0,1.9383 -2.18059,6.29946 -2.18059,8.48003 0,2.18059 1.93829,8.23774 1.93829,10.9029 0,1.93828 -1.21143,6.78402 -1.21143,8.72232 0,3.87658 0,5.81487 -0.24228,6.05715 -1.45372,3.63431 -2.18057,5.81489 -2.18057,6.54174 0,1.69601 0.48456,6.29945 0.48456,8.23775 0,1.696 -0.96914,5.57259 -0.96914,6.78401 0,1.69601 1.45371,4.36116 1.45371,5.57261 0,1.69599 -0.72686,5.08801 -0.72686,6.78401 0,2.66516 0.72686,9.20688 0.72686,11.87204 0,1.9383 -0.24228,3.14973 -0.48457,3.87659 l 0.24229,4.36116 c 0.96914,0.24229 2.66514,4.11887 3.87659,4.11887 0.72685,0 2.18057,-0.96915 4.36115,-3.14973 2.66515,-0.72685 4.36116,-1.21143 4.60345,-1.696 0.24228,-0.72686 1.21142,-2.66516 2.42285,-6.29945 1.21144,-3.6343 1.9383,-5.81488 1.9383,-6.29946 0,-1.69599 -0.96914,-5.81486 -0.96914,-7.02631 0,-1.45371 0.48457,-2.42286 1.21143,-2.66514 0.72686,-1.69601 1.21143,-4.60345 1.21143,-9.2069 0,-1.21142 -0.72686,-4.36116 -0.72686,-5.3303 0,-2.66515 3.14973,-7.26859 3.14973,-9.44917 0,-0.72687 0,-1.45371 -0.24228,-2.66516 -0.24229,-3.87657 2.42286,-9.93375 2.42286,-13.08347 0,-2.18057 -1.21144,-7.51087 -1.21144,-9.69146 0,-1.21143 0.24229,-2.18057 0.72686,-2.90744 v -0.72686 l 2.18058,-3.392 3.63429,-20.83665 c 0.24228,-0.96915 2.18059,-5.08803 2.18059,-7.2686 0,-0.72686 -0.24228,-1.45371 -0.48457,-2.18058 3.14972,-7.026302 4.84573,-11.629744 4.84573,-13.325753 0,-2.180584 -0.24229,-5.572591 -0.96915,-9.691459 -0.72686,-4.11888 -0.96914,-7.2686 -0.96914,-9.449183 0,-7.268593 2.42286,-13.08347 7.51087,-17.686915 z m 82.37753,-15.99091 c -5.57261,3.149723 -8.48004,6.541735 -8.48004,9.691461 0,2.180579 1.69601,8.237742 1.69601,10.902894 0,1.211433 -0.24229,2.665151 -0.48457,4.118871 h 0.48457 c 4.11887,-2.665153 6.05717,-5.57259 6.05717,-9.206889 0,-1.938292 -1.21144,-6.784023 -1.21144,-8.722315 0,-2.422866 0.72685,-4.603444 2.42287,-6.784022 z m 14.77947,56.45276 c 0,-0.726861 -0.72686,-2.180571 -2.42286,-4.118868 0.48458,-2.422858 0.72686,-4.845729 0.72686,-7.268587 0,-1.938297 -0.24228,-3.876593 -0.48457,-5.572603 -2.18058,1.69601 -3.87659,2.665158 -5.08802,2.665158 -1.69601,0 -2.66515,-1.69601 -2.66515,-5.088016 0,-3.392019 0.96914,-8.237747 2.90744,-14.294911 1.93829,-6.057163 4.11887,-10.176035 6.29944,-12.114326 -4.36115,2.665151 -7.75317,5.330303 -9.93374,8.237742 -2.18059,4.361157 -4.60345,8.722315 -7.02632,12.841186 -3.63429,7.026306 -6.29944,10.418325 -7.51088,10.418325 -0.72685,0 -0.96914,-0.969148 -0.96914,-2.665158 0,-1.211423 0.24229,-3.149732 0.72685,-5.814877 -5.57258,6.299451 -8.48002,12.598903 -8.48002,18.898354 0,1.453723 0,2.907433 0.24228,4.361155 -0.72686,1.69601 -1.21143,3.876581 -1.45372,6.057166 -0.24229,2.66514 -5.57258,8.48003 -5.57258,12.35662 0,3.392 -0.24229,5.81487 -0.96916,7.51087 -1.21142,2.18058 -2.18057,4.36115 -3.14972,6.54174 -0.96913,4.36117 -1.45372,7.75317 -1.45372,9.93374 -0.24229,0.96915 -1.21144,3.39202 -2.90743,7.2686 -1.69601,3.8766 -2.66516,6.05717 -3.39201,6.54174 -0.72686,0.48456 -1.21144,0.72686 -1.93831,0.72686 -2.66514,0 -4.11885,-2.90743 -4.11885,-8.72231 0,-3.6343 1.21143,-8.72231 3.87656,-15.26406 2.66516,-6.54174 3.8766,-11.87204 3.8766,-15.50633 0,-2.42286 -0.24229,-5.33031 -0.96915,-8.72233 -3.87658,6.78403 -7.51089,10.17605 -10.6606,10.17605 -2.18058,0 -3.14973,-1.45372 -3.14973,-4.36116 0,-2.42287 0.96915,-5.5726 3.14973,-9.44918 2.18058,-3.87658 3.14971,-7.0263 3.14971,-9.206883 0,-4.118881 -1.93828,-14.779475 -1.93828,-18.898355 0,-7.268594 2.42286,-13.325757 7.51088,-17.929202 -10.90289,5.57259 -16.23319,11.629754 -16.23319,18.171489 0,5.330303 0,7.753174 0,7.2686 -0.24229,3.149719 -4.60344,9.206884 -7.51089,9.206884 -2.18057,0 -3.39202,-3.14972 -3.39202,-9.691458 -0.72685,1.453722 -3.14971,3.634293 -7.0263,6.299451 -2.66516,2.180584 -4.11887,5.088016 -4.11887,8.237736 0,1.211435 0.24229,2.907445 0.48458,4.603454 -1.21144,0.969136 -2.42287,2.180584 -3.63431,3.876584 l -0.24229,1.21142 c -1.45371,0.72686 -2.66515,0.96915 -3.63429,0.96915 l -2.42286,7.2686 c -0.72687,0.72686 -0.96916,1.21143 -0.96916,1.69601 0,0 0.72686,0.96915 1.9383,2.90743 -1.21144,5.81489 -1.69601,8.9646 -1.69601,9.20688 0,1.21145 0.96916,4.11889 0.96916,5.08803 0,2.18057 -1.93831,7.75317 -1.93831,10.41832 0,1.93829 1.69602,7.02632 1.69602,8.9646 0,1.69601 -1.45373,5.3303 -1.45373,7.02631 0,1.69601 0.48457,6.29945 0.48457,8.23775 l -1.93828,1.93829 c -0.24229,1.21143 -0.48458,2.66515 -0.48458,4.11886 0,1.69601 0.48458,6.29945 0.48458,7.99546 0,1.696 -0.72686,5.57259 -0.72686,6.78402 0,1.69602 1.21143,5.81489 1.21143,7.75317 v 18.89836 c 0,0.96915 -1.21143,3.392 -1.21143,4.36116 0,1.696 1.69601,1.21143 2.66514,3.87658 0.48458,1.45372 1.21145,2.18058 2.18058,2.18058 0.24229,0 1.69601,-0.96915 4.36116,-3.14974 l 4.36117,-1.45371 c 0.72685,-2.66515 0.96913,-3.14973 2.90743,-7.75317 0.96915,-2.18057 1.45372,-4.11887 1.45372,-5.57259 0,-1.21142 -0.72686,-4.36116 -0.72686,-6.05715 0,-1.69601 0.48458,-2.66516 1.21144,-2.90745 0.24228,-1.21142 0.48456,-4.60344 0.72685,-10.41833 0,-4.60344 0.48457,-7.75315 1.69602,-9.44917 0.72685,-1.21142 1.21142,-2.66515 1.21142,-4.36116 0,-0.96913 -0.24229,-3.392 -0.48457,-4.11886 0,-2.90744 2.90743,-9.69146 2.90743,-12.59891 2.66516,11.38747 4.60344,20.10979 5.33031,25.92466 1.696,5.33031 3.39201,9.2069 4.60345,11.62977 1.21143,6.78402 2.90743,10.4183 5.08801,10.6606 0.24229,0.24229 0.24229,1.696 0.48458,4.36116 0.24228,1.69601 0.96913,2.90743 2.18058,3.63429 1.21142,1.69601 2.42286,2.42287 3.63428,2.42287 0.72688,0 1.45374,-0.24228 2.42287,-0.72686 v -0.72686 l 0.48458,-0.48456 c 4.11886,0.72685 6.05716,-2.66516 6.05716,-9.69147 0,-3.39202 -0.48457,-6.05717 -1.45372,-8.23775 2.18058,-0.72686 6.29946,-4.60344 6.29946,-6.54173 0,-0.24228 0,-0.48457 -0.24228,-0.72686 l -0.48459,-4.84574 c 2.42287,-5.81488 4.36115,-9.20688 5.81489,-10.17603 1.45371,-1.21143 2.18057,-1.93829 2.18057,-2.66516 0,-2.18057 2.90743,-7.75315 8.9646,-16.23319 -0.48458,4.36116 -0.72686,6.54173 -0.72686,6.54173 0,3.14973 -2.66515,10.17605 -2.66515,13.32577 0,2.18058 1.21144,8.23773 1.21144,10.90289 0,1.9383 -1.45374,7.02631 -1.45374,8.96461 0,0.96913 0.2423,1.93828 0.48459,2.66516 l -1.45372,7.75315 c 2.66515,3.6343 5.08801,5.33031 7.2686,5.33031 6.54172,0 10.66059,-3.392 12.35661,-10.41833 0,-0.24227 -0.24229,-0.72685 -0.48457,-0.96914 l -1.69601,-4.60344 c 0.24228,-3.14973 0.96915,-6.29946 1.69601,-9.69146 0.24228,-0.96916 2.42286,-3.14973 2.42286,-4.84573 0,-0.2423 -0.48458,-1.69602 -0.48458,-1.93829 0,-2.18059 0.72686,-5.33031 2.42287,-9.44919 1.696,-4.36115 2.66515,-7.51087 2.66515,-9.69145 0,-1.21144 -1.45371,-4.36116 -1.45371,-5.57259 0,-3.39201 0.48456,-9.20689 1.21142,-17.20235 0.72687,-8.72232 1.69601,-14.2949 2.42287,-16.47548 l 2.90745,-7.26859 c 0.72686,-1.69602 1.21142,-4.60344 1.21142,-8.23775 0,-2.180583 1.45372,-6.541738 1.45372,-7.2686 z M 730.83807,34.958526 c -5.57259,3.149724 -8.23774,6.541735 -8.23774,9.691459 0,2.180579 1.696,8.237743 1.696,10.902895 0,1.211433 -0.24229,2.665152 -0.48457,4.11887 h 0.24228 c 4.11888,-2.665151 6.05717,-5.57259 6.05717,-9.206887 0,-1.938293 -1.21143,-6.784024 -1.21143,-8.722315 0,-2.665153 0.96915,-4.845731 2.66514,-6.784022 z m 27.62066,45.549871 c 0,-1.211435 -0.48458,-2.422871 -1.21143,-3.149732 -0.24228,2.180584 -4.60344,5.57259 -7.26858,5.57259 -3.14974,0 -4.84575,-4.118855 -4.84575,-12.114329 0,-7.510877 -2.18057,-15.02176 -6.54173,-22.048069 0.24228,1.453718 0.24228,2.907438 0.24228,4.361157 0,5.814878 -1.21142,10.660608 -3.87658,14.77948 -3.14973,4.603442 -7.51089,6.784025 -13.08348,6.784025 -5.81486,0 -8.72231,-2.42287 -8.72231,-7.026312 0,-1.696006 0.72687,-5.572591 0.72687,-7.268597 -4.36117,1.938293 -9.44918,7.268597 -15.26405,16.233194 -5.33032,7.995461 -9.44919,11.872054 -12.35662,11.872054 -2.66516,0 -3.87658,-0.484574 -3.87658,-1.696022 0,-0.969136 0.96914,-3.876581 0.96914,-5.088016 l -3.39201,6.057177 c -2.18057,10.176032 -3.63431,18.898343 -4.11888,26.409233 l 0.96915,0.24228 c -2.18057,5.08802 -3.87657,8.72231 -5.08802,11.14517 l -1.21142,0.96916 v 1.21143 l -1.21144,0.96914 c -2.42287,7.51089 -3.63429,12.59891 -3.63429,15.26406 0,2.66515 1.696,8.9646 1.696,11.62975 0,1.21143 -0.24229,2.90744 -0.72687,4.84574 -1.21142,5.08802 -1.21142,4.84573 -2.18057,5.81486 l 0.24229,1.69601 c -0.72687,0.72685 -0.96916,1.21144 -0.96916,1.69601 v 0.48458 c -0.96914,1.45371 -1.45371,4.60344 -1.45371,9.44917 l -1.696,2.18057 -0.48457,0.2423 h -0.48459 l -0.72686,1.21142 c 0,1.45372 0.24229,2.90743 0.72686,4.60346 1.69601,7.75316 2.66516,13.08346 2.90745,15.74862 3.63429,3.63429 5.3303,5.3303 5.3303,5.3303 1.21143,0 2.42287,0.24229 3.14972,0.96914 l 0.48457,0.96915 h 0.48458 l 0.48457,0.24228 0.48459,0.72688 0.48456,0.48456 0.24229,1.69601 1.21143,0.96914 c 0.24229,0.72686 0.72685,0.96914 0.96914,0.96914 0.24229,0 0.24229,-0.24228 0,-0.48457 0.48457,0.96916 1.21145,1.45373 2.42287,1.69601 h 0.48457 c 1.45373,0.48457 3.39202,0.72686 5.57259,0.72686 2.90745,0 9.69146,-0.72686 12.35662,-0.72686 l 1.45371,0.96915 h 0.96916 c 0.72685,0.24228 1.93828,0.48457 3.63428,0.48457 3.8766,0 6.78403,-0.72686 8.48004,-2.18057 h 0.96915 l 1.45372,-1.45373 h 0.96913 l 0.96915,-1.21143 c 1.69601,-0.48457 2.90745,-1.21143 3.14973,-2.18058 0.24229,0.2423 0.24229,0.2423 0.48457,0.2423 1.45373,-0.72688 2.42287,-1.45374 3.14973,-1.93831 1.696,0 2.90744,-0.48456 4.11887,-1.21142 0.72686,0.24228 1.45372,0.24228 2.18059,0 l 1.21143,-0.96915 h 0.48457 0.72686 l 0.96914,-1.21144 h 0.48457 c 0.72687,0 1.21144,-0.24228 1.45372,-0.96915 h 1.45373 l 0.24228,-0.48457 2.18059,-1.9383 c 0.72685,-2.18057 2.42285,-3.39199 4.84573,-4.11885 l 0.48457,-0.96916 2.66515,-3.39201 0.24228,-0.96915 -0.72686,-5.57259 c -3.14972,-3.14972 -4.84573,-5.088 -5.57259,-5.33029 h -0.96915 c -0.72685,-0.72686 -1.45371,-1.21145 -1.93829,-1.45373 -1.21143,-0.24229 -1.93829,-0.24229 -2.66515,-0.24229 -0.72685,0 -1.21142,0 -1.45371,0.24229 l -0.2423,0.96916 -0.96915,0.48457 h -0.96913 l -1.69601,3.87658 -3.14972,2.18057 h -0.96915 c -0.96915,0.96915 -3.14973,1.45373 -6.54174,1.69601 -3.39202,0.24229 -5.3303,0.48458 -6.05716,0.96915 h -1.45373 c -6.29944,4.11887 -11.62974,6.29944 -15.74862,6.29944 -0.72685,0 -1.45372,-0.24227 -2.66515,-0.48456 l -1.21143,-0.96915 -1.9383,-0.96915 h 0.24229 c -0.72686,-0.24227 -1.21144,-0.48456 -1.45372,-0.48456 -0.24229,0 -0.24229,0 0,0 0,0.24229 0,0.48456 0.24228,0.48456 -0.72684,-0.72686 -1.93828,-0.24227 -3.63429,-2.90743 v -0.96915 c -0.72686,-1.21143 -1.21143,-1.9383 -1.45372,-2.66516 v -0.48457 c -1.21142,-0.96914 -1.696,-1.93829 -1.696,-3.14972 0,-0.24229 0.72686,-3.14972 2.42286,-8.48004 1.696,-5.3303 2.90744,-8.23773 3.14973,-8.72231 0,-1.21143 0.24229,-2.42285 0.96914,-3.14972 0.72686,-3.63429 1.93831,-7.2686 3.14973,-10.66061 0,-0.96914 -0.72686,-2.90744 -0.72686,-3.6343 0,-1.696 0.72686,-5.57259 0.72686,-7.26859 0,-3.6343 -1.21142,-2.90744 -1.21142,-3.6343 0,-0.96915 0.96913,-2.90743 2.66513,-6.05717 1.93831,-3.14972 3.39202,-5.08801 4.36117,-5.81487 0,-0.48457 0.24228,-0.96914 0.72685,-1.696 l 4.36116,-6.05717 0.48456,0.24228 4.60345,-0.72685 c 2.42287,-0.48457 3.6343,-0.96915 3.6343,-1.69601 h 0.96916 l 3.87657,-2.18058 h 1.21144 c 0.24228,-0.72685 0.96915,-1.21143 2.42286,-1.21143 0.96916,0 1.93831,0.24229 2.66515,0.48458 0.24229,0.48456 0.48458,1.21142 0.24229,1.93828 0.72686,0.96915 1.21144,1.9383 1.21144,2.66516 0,0.72685 -0.72686,1.93828 -2.18057,3.14972 l -1.21144,2.18058 -0.2423,0.96914 0.2423,1.21145 c -0.2423,0.24228 -0.2423,0.72685 -0.2423,1.45371 0,2.90744 0,4.11886 0,3.6343 -1.21142,2.18057 -1.93828,4.11887 -2.18057,5.33029 v 0.24229 c -0.24229,0.96915 -0.48458,1.9383 -0.48458,2.66516 0,2.90744 3.39202,5.81488 6.05717,7.99546 -0.24229,-0.96916 0.48457,-0.72686 2.18058,0.96914 -0.24228,0 0.96915,0.24228 3.14972,0.48457 0.72686,-0.24229 1.45373,-0.72685 1.9383,-1.21142 h -0.48457 1.21143 c 1.69601,-0.24229 6.05717,0.96913 7.75316,0.96913 0.72686,0 1.21144,0 1.69601,-0.24228 0.72685,-0.96914 1.45372,-1.45371 1.69601,-1.45371 0.24229,0 0.24229,0.24228 0.24229,0.48457 0.96913,-0.48457 1.696,-0.72686 2.42286,-0.72686 0.24228,-1.21144 0.24228,-1.69601 0.24228,-1.69601 0,-1.696 1.45373,-3.39202 1.69601,-4.11887 l 1.696,-1.21143 v -0.48458 -0.48457 c 0.24229,-0.24228 0.24229,-0.48456 0.24229,-0.96915 0,-1.696 -0.72685,-5.57259 -0.72685,-7.51088 v -0.96916 c 0.24227,-0.48456 0.72685,-0.96913 1.45371,-1.45371 l -0.48458,0.24229 c 0,-0.72686 0.48458,-1.45372 1.45374,-2.42286 l -0.48457,0.24229 c 0,0.24229 0,0.24229 0,0 0,-0.24229 1.21142,-2.90745 1.21142,-4.60344 0,-0.96916 -0.24229,-1.93831 -0.48458,-2.90745 l -0.48456,-0.48457 -0.24228,-0.48458 c 0,-2.18058 1.69599,-7.51088 1.69599,-9.44918 0,-6.29944 0,-9.206883 -0.24228,-8.48001 l 0.96914,-0.969161 c 0,-1.938284 0.96914,-5.088016 2.90745,-9.206884 2.18057,-4.361155 3.14971,-7.510887 3.14971,-9.691458 z m 42.88465,-37.554418 c -5.57259,3.149726 -8.23775,6.541738 -8.23775,9.691462 0,2.180579 1.69601,8.237742 1.69601,10.902894 0,1.211433 -0.24229,2.665153 -0.48456,4.118872 h 0.24227 c 4.11888,-2.665152 6.05717,-5.572591 6.05717,-9.206888 0,-1.938293 -1.21144,-6.541738 -1.21144,-8.722316 0,-2.422865 0.96915,-4.603445 2.66515,-6.784024 z m 41.431,55.725899 c 0,-5.088016 -0.48457,-10.418307 -1.21143,-16.475484 -0.24229,6.541739 -1.9383,10.176045 -4.60345,10.902906 l -0.96916,-0.969148 c -0.72685,-0.242287 -1.45371,-0.969161 -1.69599,-2.665158 l -0.96915,-1.45371 v -0.969161 l -0.48456,-0.242287 c 0,-3.149707 1.21142,-11.629742 1.21142,-15.264049 0,-3.87658 -0.72686,-7.026305 -2.18059,-9.206884 -0.96914,9.206884 -3.87658,13.810339 -8.72231,13.810339 -4.84572,0 -8.23774,-5.572603 -8.23774,-10.418328 0,-4.845731 2.42287,-9.206888 7.02631,-13.32576 -6.54173,2.18058 -11.62976,7.753169 -15.50634,16.960058 -5.08801,11.629759 -8.72232,18.656072 -11.14518,21.07893 l -1.69601,0.242287 -2.66514,-0.242287 -1.9383,1.938297 c -1.69601,-0.242287 -2.42286,-1.453722 -2.42286,-3.149732 0,-1.938297 0.72685,-4.361155 1.93829,-7.2686 1.21143,-2.422858 2.18058,-4.845729 3.39202,-7.0263 -6.05717,3.876593 -10.17604,9.206884 -11.87206,15.99091 -2.66513,9.933743 -4.36115,15.990913 -5.57258,17.929193 -0.72686,0.96916 -1.69601,1.9383 -2.42287,3.14973 -1.21143,1.69601 -1.93828,2.66516 -1.69601,3.14973 l -1.45371,1.45371 c -0.24228,0.96917 -0.72686,1.69601 -0.96916,2.18059 v 4.11887 c -0.24227,1.45372 -0.24227,2.42285 0,2.90743 l -3.63428,8.72233 c -1.69601,3.63429 -3.39202,6.05716 -5.08803,7.26859 -0.24228,0.96914 -0.72686,1.69601 -0.96915,2.18058 v 1.45372 c -0.24227,4.60344 -0.24227,8.23774 -0.24227,10.9029 -0.72686,1.696 -1.21144,3.14971 -1.21144,3.87657 v 0.48459 c -1.45371,0.48457 -2.42287,0.72684 -3.14973,0.72684 -1.21142,6.78403 -1.69599,9.69146 -1.69599,8.72233 0,1.21142 0.96914,4.36115 0.96914,6.05715 v 0.96915 l -0.96914,1.45372 v 0.96915 l -0.72687,0.96915 v 1.93829 c -0.72686,1.93829 -0.96914,3.392 -1.21143,4.36116 0,2.90743 2.66516,10.41832 2.66516,14.05261 v 1.21144 l 2.42285,2.42287 0.48459,0.24229 0.24228,0.48456 0.48457,0.48457 c 0.72686,1.696 1.21144,3.14973 1.69601,3.87659 l 0.24227,0.48457 0.24229,0.48457 c -0.24229,-0.24229 0.24229,-0.24229 1.21145,0.24229 l 3.39199,2.18058 h 0.48458 c 0.96916,0.96915 4.36115,0.24229 5.08803,1.93829 l 0.48457,0.24228 h 0.48457 c 0.72685,1.21145 1.696,2.18059 2.90745,2.90745 h 0.72685 c 1.93828,0.24228 8.48003,1.93828 11.62974,1.93828 5.08803,0 8.96462,-0.96913 11.14519,-2.66514 3.6343,-0.96914 6.78403,-1.69601 9.44918,-2.18059 l 1.21142,-0.96913 c 1.21145,-0.24229 2.42287,-0.72686 3.14973,-1.45373 h 1.69601 c 2.66515,-0.24228 10.90289,-2.18058 10.17603,-3.392 0.24229,0 0.24229,0 0.24229,0.24228 0.72686,-0.72686 1.21143,-1.21143 1.45372,-1.21143 0.24228,0 0.24228,0 0.24228,0.24229 0.72687,-1.21145 1.45373,-1.9383 2.18059,-2.18059 l 1.45371,-0.72686 0.24229,-0.96913 c 0.72687,-0.24229 1.21144,-0.24229 1.45372,-0.48458 l 0.24229,-0.96915 h 0.72686 l 0.96914,-0.96915 c 0.48457,-1.21143 0.72686,-2.42285 0.72686,-3.392 0,-1.21145 -0.24229,-2.18059 -0.72686,-2.90745 0.96914,-1.21142 0.72686,-2.66516 3.87659,-8.23773 1.696,-2.66516 2.42287,-4.36117 2.42287,-5.08802 0,-1.21145 -2.90744,-4.11888 -2.66516,-6.05718 v -0.48457 c 0.96915,-1.45371 1.696,-2.42286 1.93829,-3.14972 -1.21143,-1.9383 -1.93829,-3.63429 -1.93829,-5.3303 0,-2.66515 0.96915,-6.78402 2.90745,-11.87205 2.18057,-5.08801 3.1497,-8.72232 3.1497,-10.6606 0,-2.42287 -1.69599,-4.36116 -5.088,-5.57259 -0.72686,-1.21144 -0.96915,-2.18059 -0.96915,-3.14972 0,-0.24229 0,-0.72686 0.24229,-0.96915 l 0.72686,-0.72686 c -0.24229,-1.45372 0.48456,-2.66515 1.69601,-3.39201 l 1.696,-2.90744 c -0.72686,-3.14974 -1.21143,-5.08802 -1.21143,-6.29944 0.48457,-0.48459 0.72685,-0.72688 0.96914,-0.72688 0.24229,0.24229 0.48457,0.24229 0.24229,0.48459 l 0.96915,-0.96916 c 0.48457,-0.96914 0.72684,-1.696 0.72684,-2.42286 0,-0.72686 -0.24227,-1.45372 -0.96913,-1.9383 l -0.24229,-1.45371 1.21142,1.696 c 1.45374,-5.57259 2.1806,-11.62974 2.1806,-18.171492 z m -29.07439,24.228662 -0.24228,1.69601 -0.72686,1.21142 -0.96915,0.2423 c -0.48456,3.63429 -0.72685,6.54172 -0.48456,8.48003 l -0.72688,0.96914 v 0.96915 l -0.96915,1.21142 c -0.24228,0.96915 -0.24228,1.45374 -0.24228,1.45374 0,4.60344 0,6.78401 0.24228,6.54172 -0.48457,1.21143 -0.72685,2.18059 -0.72685,3.14973 0,1.21143 0.24228,1.696 0.96914,1.93829 v 0.72686 l 0.24229,0.48457 0.48457,0.24229 h 0.48459 v 0.96915 l 0.48456,0.72686 c -0.24227,1.45371 -0.24227,2.90743 -0.24227,4.60344 0,2.42287 0.24227,6.05715 0.96913,11.14518 0.72686,5.08802 1.21144,8.72231 1.21144,11.14517 0,6.05718 -1.45373,10.17605 -4.11888,12.11433 -3.6343,1.93831 -7.02632,3.87659 -10.6606,5.57259 h -6.54175 c -0.48456,0.72687 -1.21142,1.21145 -2.18057,1.21145 -0.72686,0 -1.69601,-0.24229 -2.66516,-0.72686 -2.90743,-1.21145 -3.14972,-1.69601 -3.392,-2.66516 h -0.24229 c -0.96915,0 -2.90745,0.96915 -4.11887,0.96915 -4.60344,-0.24229 -6.29945,-5.57259 -7.51089,-4.36117 l -0.24228,-0.48456 -0.24229,-1.21144 -0.96915,-1.21143 v -0.96915 c -0.48456,-0.48457 -0.72685,-0.96915 -0.72685,-1.696 l 0.24229,-1.69602 c -1.69601,-2.66513 -2.42287,-5.088 -2.42287,-6.78401 0,-1.69601 3.14972,-1.21143 3.87658,-2.90745 v -0.48456 -0.48457 l 1.21143,-1.45373 v -0.48457 c 1.21144,-7.0263 2.42286,-11.14518 3.39201,-12.11432 v -0.48457 -0.48459 l 0.72687,-0.72686 v -1.21142 c 1.21143,-0.48458 1.696,-1.93829 1.93829,-4.60344 0,-3.8766 0.24229,-6.05718 0.72686,-6.78403 l 1.45372,-0.48457 c 1.696,-4.84573 2.42286,-8.23775 2.42286,-9.93375 l 0.48458,0.72686 c 0.48457,0 1.21142,-0.72686 2.18058,-1.93829 h 0.72686 l 0.96914,-0.96915 c 1.69602,0.24228 2.90744,-2.18057 3.14973,-2.42286 v -0.48458 c 0.72686,-3.87658 0.24229,-7.75317 4.84573,-11.38746 0.96915,0 1.69599,-0.24229 1.93828,-0.96915 2.18059,-0.72686 3.63431,-1.45372 4.11887,-2.18059 h 0.96916 c 4.36116,-0.48457 7.51087,-0.96914 9.44917,-1.45371 l 0.48458,0.48457 v 0.96914 c 0.72686,0.72687 1.21142,1.21144 1.45371,1.69601 l 0.48457,3.14972 z m 79.22777,-79.954561 c -5.57261,3.149726 -8.23775,6.541738 -8.23775,9.691462 0,2.180579 1.696,8.237742 1.696,10.902894 0,1.211433 -0.24229,2.665153 -0.48458,4.118872 h 0.24229 c 4.11888,-2.665152 6.05718,-5.572591 6.05718,-9.206888 0,-1.938293 -1.21145,-6.541738 -1.21145,-8.722316 0,-2.422865 0.96916,-4.603445 2.66516,-6.784024 z m 41.43098,55.725899 c 0,-5.088016 -0.48457,-10.418307 -1.21143,-16.475484 -0.24228,6.541739 -1.93828,10.176045 -4.60344,10.902906 l -0.96915,-0.969148 c -0.72685,-0.242287 -1.45371,-0.969161 -1.69601,-2.665158 l -0.96915,-1.45371 V 87.050123 L 924.425,86.807836 c 0,-3.149707 1.21143,-11.629742 1.21143,-15.264049 0,-3.87658 -0.72687,-7.026305 -2.18058,-9.206884 -0.96914,9.206884 -3.87658,13.810339 -8.72231,13.810339 -4.84573,0 -8.23774,-5.572603 -8.23774,-10.418328 0,-4.845731 2.42285,-9.206888 7.02631,-13.32576 -6.54174,2.18058 -11.62976,7.753169 -15.50635,16.960058 -5.088,11.629759 -8.72231,18.656072 -11.14518,21.07893 l -1.696,0.242287 -2.66516,-0.242287 -1.93828,1.938297 c -1.69602,-0.242287 -2.42287,-1.453722 -2.42287,-3.149732 0,-1.938297 0.72685,-4.361155 1.9383,-7.2686 1.21142,-2.422858 2.18057,-4.845729 3.392,-7.0263 -6.05716,3.876593 -10.17603,9.206884 -11.87204,15.99091 -2.66516,9.933743 -4.36115,15.990913 -5.57258,17.929193 -0.72687,0.96916 -1.69602,1.9383 -2.42287,3.14973 -1.21143,1.69601 -1.93831,2.66516 -1.69601,3.14973 l -1.45372,1.45371 c -0.24229,0.96917 -0.72686,1.69601 -0.96915,2.18059 v 4.11887 c -0.24229,1.45372 -0.24229,2.42285 0,2.90743 l -3.63429,8.72233 c -1.696,3.63429 -3.39202,6.05716 -5.08802,7.26859 -0.24229,0.96914 -0.72686,1.69601 -0.96915,2.18058 v 1.45372 c -0.24228,4.60344 -0.24228,8.23774 -0.24228,10.9029 -0.72685,1.696 -1.21144,3.14971 -1.21144,3.87657 v 0.48459 c -1.45371,0.48457 -2.42286,0.72684 -3.14972,0.72684 -1.21143,6.78403 -1.69601,9.69146 -1.69601,8.72233 0,1.21142 0.96915,4.36115 0.96915,6.05715 v 0.96915 l -0.96915,1.45372 v 0.96915 l -0.72686,0.96915 v 1.93829 c -0.72685,1.93829 -0.96914,3.392 -1.21142,4.36116 0,2.90743 2.66514,10.41832 2.66514,14.05261 v 1.21144 l 2.42287,2.42287 0.48457,0.24229 0.24228,0.48456 0.48458,0.48457 c 0.72686,1.696 1.21144,3.14973 1.69601,3.87659 l 0.24228,0.48457 0.24229,0.48457 c -0.24229,-0.24229 0.24229,-0.24229 1.21144,0.24229 l 3.392,2.18058 h 0.48458 c 0.96915,0.96915 4.36115,0.24229 5.08801,1.93829 l 0.48458,0.24228 h 0.48457 c 0.72686,1.21145 1.69601,2.18059 2.90743,2.90745 h 0.72687 c 1.93829,0.24228 8.48003,1.93828 11.62975,1.93828 5.08802,0 8.96461,-0.96913 11.14519,-2.66514 3.63428,-0.96914 6.78402,-1.69601 9.44917,-2.18059 l 1.21143,-0.96913 c 1.21143,-0.24229 2.42287,-0.72686 3.14973,-1.45373 h 1.696 c 2.66515,-0.24228 10.9029,-2.18058 10.17604,-3.392 0.24229,0 0.24229,0 0.24229,0.24228 0.72686,-0.72686 1.21143,-1.21143 1.45371,-1.21143 0.24229,0 0.24229,0 0.24229,0.24229 0.72686,-1.21145 1.45372,-1.9383 2.18057,-2.18059 l 1.45373,-0.72686 0.24229,-0.96913 c 0.72685,-0.24229 1.21142,-0.24229 1.45371,-0.48458 l 0.24229,-0.96915 h 0.72686 l 0.96915,-0.96915 c 0.48457,-1.21143 0.72686,-2.42285 0.72686,-3.392 0,-1.21145 -0.24229,-2.18059 -0.72686,-2.90745 0.96914,-1.21142 0.72686,-2.66516 3.87659,-8.23773 1.696,-2.66516 2.42286,-4.36117 2.42286,-5.08802 0,-1.21145 -2.90745,-4.11888 -2.66515,-6.05718 v -0.48457 c 0.96914,-1.45371 1.696,-2.42286 1.93829,-3.14972 -1.21143,-1.9383 -1.93829,-3.63429 -1.93829,-5.3303 0,-2.66515 0.96914,-6.78402 2.90743,-11.87205 2.18059,-5.08801 3.14972,-8.72232 3.14972,-10.6606 0,-2.42287 -1.69599,-4.36116 -5.08801,-5.57259 -0.72685,-1.21144 -0.96914,-2.18059 -0.96914,-3.14972 0,-0.24229 0,-0.72686 0.24229,-0.96915 l 0.72685,-0.72686 c -0.24228,-1.45372 0.48457,-2.66515 1.69601,-3.39201 l 1.69601,-2.90744 c -0.72688,-3.14974 -1.21144,-5.08802 -1.21144,-6.29944 0.48456,-0.48459 0.72685,-0.72688 0.96914,-0.72688 0.2423,0.24229 0.48458,0.24229 0.2423,0.48459 l 0.96915,-0.96916 c 0.48456,-0.96914 0.72684,-1.696 0.72684,-2.42286 0,-0.72686 -0.24228,-1.45372 -0.96913,-1.9383 l -0.24229,-1.45371 1.21142,1.696 c 1.45373,-5.57259 2.18058,-11.62974 2.18058,-18.171492 z m -29.07438,24.228662 -0.24227,1.69601 -0.72688,1.21142 -0.96915,0.2423 c -0.48457,3.63429 -0.72685,6.54172 -0.48457,8.48003 l -0.72685,0.96914 v 0.96915 l -0.96915,1.21142 c -0.24228,0.96915 -0.24228,1.45374 -0.24228,1.45374 0,4.60344 0,6.78401 0.24228,6.54172 -0.48457,1.21143 -0.72686,2.18059 -0.72686,3.14973 0,1.21143 0.24229,1.696 0.96915,1.93829 v 0.72686 l 0.24229,0.48457 0.48457,0.24229 h 0.48457 v 0.96915 l 0.48457,0.72686 c -0.24229,1.45371 -0.24229,2.90743 -0.24229,4.60344 0,2.42287 0.24229,6.05715 0.96915,11.14518 0.72686,5.08802 1.21145,8.72231 1.21145,11.14517 0,6.05718 -1.45374,10.17605 -4.11888,12.11433 -3.6343,1.93831 -7.02632,3.87659 -10.66061,5.57259 h -6.54174 c -0.48456,0.72687 -1.21144,1.21145 -2.18058,1.21145 -0.72685,0 -1.696,-0.24229 -2.66516,-0.72686 -2.90742,-1.21145 -3.14971,-1.69601 -3.392,-2.66516 h -0.24228 c -0.96916,0 -2.90745,0.96915 -4.11887,0.96915 -4.60346,-0.24229 -6.29946,-5.57259 -7.51089,-4.36117 l -0.24229,-0.48456 -0.24228,-1.21144 -0.96915,-1.21143 v -0.96915 c -0.48459,-0.48457 -0.72686,-0.96915 -0.72686,-1.696 l 0.24227,-1.69602 c -1.69599,-2.66513 -2.42286,-5.088 -2.42286,-6.78401 0,-1.69601 3.14974,-1.21143 3.8766,-2.90745 v -0.48456 -0.48457 l 1.21142,-1.45373 v -0.48457 c 1.21144,-7.0263 2.42287,-11.14518 3.39202,-12.11432 v -0.48457 -0.48459 l 0.72686,-0.72686 v -1.21142 c 1.21142,-0.48458 1.696,-1.93829 1.9383,-4.60344 0,-3.8766 0.24228,-6.05718 0.72686,-6.78403 l 1.45371,-0.48457 c 1.696,-4.84573 2.42287,-8.23775 2.42287,-9.93375 l 0.48457,0.72686 c 0.48458,0 1.21143,-0.72686 2.18058,-1.93829 h 0.72686 l 0.96914,-0.96915 c 1.696,0.24228 2.90744,-2.18057 3.14972,-2.42286 v -0.48458 c 0.72688,-3.87658 0.24229,-7.75317 4.84573,-11.38746 0.96915,0 1.69601,-0.24229 1.9383,-0.96915 2.18057,-0.72686 3.63431,-1.45372 4.11887,-2.18059 h 0.96915 c 4.36115,-0.48457 7.51088,-0.96914 9.44917,-1.45371 l 0.48457,0.48457 v 0.96914 c 0.72688,0.72687 1.21144,1.21144 1.45372,1.69601 l 0.48458,3.14972 z M 1025.2163,33.747093 c -5.5726,3.149724 -8.2378,6.541735 -8.2378,9.69146 0,2.180579 1.4537,8.237742 1.4537,10.902894 0,1.211433 -0.2422,2.665152 -0.4845,4.118872 h 0.4845 c 4.1189,-2.665153 6.0572,-5.572591 6.0572,-9.206889 0,-1.938292 -1.2115,-6.784024 -1.2115,-8.722315 0,-2.422865 0.7269,-4.603444 2.4229,-6.784022 z m -60.08711,16.475482 c -5.33029,3.149726 -7.99544,6.541738 -7.99544,9.691463 0,2.180578 1.45371,8.237742 1.45371,10.902888 0,1.211436 -0.24229,2.665158 -0.48458,4.118881 h 0.48458 c 4.11886,-2.665158 6.05717,-5.572595 6.05717,-9.206893 0,-1.938292 -1.21145,-6.784022 -1.21145,-8.722315 0,-2.422865 0.72688,-4.603445 2.42288,-6.784024 z m 68.80941,-1.211431 c -4.8457,6.541736 -9.4492,8.722315 -12.599,20.109781 -1.6959,5.572594 -3.3919,9.691475 -5.088,12.114333 -1.2114,1.45371 -2.1806,2.180584 -2.9073,2.180584 -1.9384,0 -2.9075,-2.907445 -3.1498,-8.964622 0,-0.484562 0,-0.726849 0,-0.726849 l -2.6652,2.422871 c -2.6651,2.665158 -4.1188,7.995449 -4.1188,15.506323 -6.05714,6.784026 -9.69151,11.629755 -10.90288,14.537205 -1.21147,2.66514 -2.90749,6.05716 -5.57264,9.69145 -2.42287,3.63431 -4.11887,7.02632 -5.33029,10.17605 -0.96916,2.66514 -3.14973,6.05716 -6.78404,10.66061 -1.69599,2.18058 -4.36115,5.33029 -8.48002,9.93374 -0.48457,-2.90743 -0.72686,-4.60345 -0.72686,-4.84573 0,-2.18058 1.45372,-6.78402 4.11888,-13.81034 2.90743,-7.02631 4.36115,-10.6606 4.36115,-10.90289 v -0.96915 c -0.24228,-0.48457 -0.24228,-0.72686 -0.24228,-0.96914 l -0.48458,-0.96914 c 2.66515,-6.05718 4.11887,-11.62976 4.11887,-16.475488 0,-1.938296 -0.24229,-3.876593 -0.72686,-5.57259 -2.18057,1.695997 -3.87658,2.665145 -5.08802,2.665145 -1.69601,0 -2.66514,-1.695997 -2.66514,-5.088016 0,-3.392019 0.96913,-7.995461 2.90743,-14.052613 2.18058,-6.057168 4.11887,-10.17604 6.29945,-12.114333 -4.36115,2.665153 -7.51089,5.330305 -9.69146,8.23774 -2.18058,4.361167 -4.60345,8.722322 -7.02631,12.84119 -3.63431,7.0263 -6.29945,10.418319 -7.51089,10.418319 -0.72686,0 -0.96915,-0.969148 -0.96915,-2.665145 0,-1.211448 0.24229,-3.149732 0.48458,-5.81489 -5.57258,6.299464 -8.23774,12.598903 -8.23774,18.656081 0,1.45371 0,3.14971 0.24229,5.08802 -1.45372,6.54172 -2.18058,11.38745 -2.18058,14.53718 0,2.18059 1.45372,7.02632 1.45372,8.9646 0,1.9383 -1.93829,7.02631 -1.93829,9.20688 0,2.90745 1.93829,8.96461 1.93829,11.87205 0,3.14973 -0.72686,7.99546 -2.18057,14.5372 -1.21145,6.29945 -1.9383,10.90289 -1.9383,14.05261 0,1.69601 0.48456,5.57259 0.48456,7.2686 0,2.66514 -0.96913,8.96461 -0.96913,11.14518 0,1.69601 0.48457,3.14972 1.45371,3.87658 v 0.48458 c 0.24228,1.696 -0.48458,5.08801 -0.48458,6.29945 0,1.69601 0.48458,3.14972 1.69602,4.36116 0.48457,0.72685 1.21143,1.21143 2.42286,1.21143 l 1.45371,-0.24229 0.2423,-0.48457 0.48458,-0.48457 c 0.96913,0.24228 2.18057,0.24228 3.87658,-0.24228 4.36115,-1.45374 6.54172,-6.05718 6.54172,-13.81035 0,-5.57258 1.93831,-13.81033 1.93831,-16.47548 0,-0.72687 0,-1.21143 -0.2423,-1.69601 1.21144,-0.48457 2.18059,-0.96914 2.66516,-1.69599 l 0.24229,0.48456 0.48456,0.24229 c 3.39202,2.18057 6.29946,3.6343 8.72232,4.60344 0,0.96915 0.24229,1.9383 0.72685,2.90744 2.1806,1.93829 4.84574,3.39201 7.99546,4.36116 2.66516,1.45372 4.60344,2.66514 5.81489,3.87659 3.6343,1.93829 6.05719,2.90743 7.26857,3.14971 l 3.39206,2.1806 c 5.57254,3.14971 9.93364,5.57257 12.84114,6.78401 0.9692,1.21143 7.0263,4.60345 8.2378,4.60345 0.4845,-0.2423 1.696,-0.48458 3.6342,-0.48458 1.4538,-0.24229 2.1806,-0.96915 2.1806,-2.18057 0,-0.96915 -0.9691,-3.39202 -0.9691,-4.36116 0,-0.96915 1.2114,-2.66516 1.2114,-3.39202 0,-0.24229 -2.4229,-3.39201 -7.0263,-9.20688 -0.2423,-0.48458 -2.1806,-1.45371 -5.8148,-3.14974 -3.3921,-1.69599 -5.0881,-3.14971 -4.8458,-3.87658 -5.5726,-4.11886 -9.93374,-6.78401 -13.0835,-8.48003 -0.72678,-0.72685 -1.93825,-1.93829 -3.39197,-3.87658 -1.21144,-1.45371 -2.90745,-2.66515 -5.08803,-3.6343 -5.57258,-1.93829 -6.05715,-5.81487 -9.20689,-7.75316 2.66516,-3.87659 4.36116,-6.78404 5.33031,-8.96461 4.84574,-4.60344 8.72231,-7.99545 11.3875,-10.17603 5.08804,-5.57259 9.20688,-11.62975 12.59888,-17.92921 0.2423,-0.48457 2.6651,-2.66514 7.0263,-6.54172 4.3611,-4.11888 6.784,-6.29947 7.2686,-6.54175 6.0572,-3.14972 9.6915,-8.72231 10.9028,-16.233201 2.1806,-0.484574 3.1498,-1.695997 3.1498,-3.392019 0,-1.45371 -0.7269,-2.665133 -2.1806,-3.391994 v -1.938297 l -1.2115,1.453723 c -2.4227,-1.938297 -4.1188,-3.392019 -4.8456,-4.603442 1.2114,-5.572603 2.4229,-9.933758 3.392,-12.598903 0.2424,-0.969149 0.4846,-4.603443 0.969,-10.660612 0.4846,-4.361157 1.2115,-7.753169 2.1807,-10.418321 z"
     id="text14"
     aria-label="LET HIM COOK" /></svg>
